<?xml version="1.0" encoding="UTF-8"?>
<svg xmlns="http://www.w3.org/2000/svg" width="150" height="150" viewBox="0 0 150 150">
  <defs>
    <style>.a{fill:#fd9125;}</style>
  </defs>
  <path class="a" d="M81.14,64c-3.6,0-19.08.36-29,15.35V64A17.16,17.16,0,0,0,35,46.81a5.72,5.72,0,0,0,0,11.43A5.73,5.73,0,0,1,40.68,64v45.72A11.43,11.43,0,0,0,52.1,121.1H83.53a2.86,2.86,0,0,0,2.86-2.86h0v-2.85a5.72,5.72,0,0,0-5.71-5.72H75L97.82,92.53v25.71a2.86,2.86,0,0,0,2.86,2.86h5.71a2.86,2.86,0,0,0,2.86-2.86V81.43a22.63,22.63,0,0,1-5.72.81A22.89,22.89,0,0,1,81.13,64Zm28.11-17.14H97.82L86.39,35.38v24a17.15,17.15,0,0,0,34.29,0h0v-24ZM96.39,61.1a2.86,2.86,0,1,1,2.86-2.86h0A2.86,2.86,0,0,1,96.39,61.1Zm14.29,0a2.86,2.86,0,1,1,2.85-2.86,2.86,2.86,0,0,1-2.85,2.86Z"></path>
</svg>
