<?xml version="1.0" encoding="UTF-8"?>
<svg xmlns="http://www.w3.org/2000/svg" width="150" height="150" viewBox="0 0 150 150">
  <defs>
    <style>.a{fill:#fd9125;}</style>
  </defs>
  <path class="a" d="M61.78,105.5h3.48V80.38H61.78A3.48,3.48,0,0,1,58.3,76.9h0V68.59a3.49,3.49,0,0,1,3.48-3.49H81.26a3.48,3.48,0,0,1,3.48,3.48h0V105.5h3.48A3.49,3.49,0,0,1,91.7,109h0v8.31a3.48,3.48,0,0,1-3.48,3.48H61.78a3.48,3.48,0,0,1-3.48-3.48V109a3.49,3.49,0,0,1,3.48-3.49ZM75,31.7A12.53,12.53,0,1,0,87.53,44.23,12.54,12.54,0,0,0,75,31.7Z"></path>
</svg>
