<?xml version="1.0" encoding="UTF-8"?>
<svg xmlns="http://www.w3.org/2000/svg" width="150" height="150" viewBox="0 0 150 150">
  <defs>
    <style>.a{fill:#fd9125;}</style>
  </defs>
  <path class="a" d="M47.38,82.61a5.21,5.21,0,0,0-3.29,3.28l-9.55,28.68.76.76,15.06-15.06A5,5,0,0,1,50.11,99a5.19,5.19,0,1,1,5.19,5.19h0a5.5,5.5,0,0,1-1.27-.25L39,119l.76.76,28.67-9.55a5.23,5.23,0,0,0,3.29-3.29l5.36-13.63-16-16Zm47-41.29L64.73,73.67,80.6,89.54,113,59.84C126.72,47.67,106.5,27.65,94.42,41.32Z"></path>
</svg>
