<?xml version="1.0" encoding="UTF-8"?>
<!-- Generator: Adobe Illustrator 26.0.1, SVG Export Plug-In . SVG Version: 6.00 Build 0)  -->
<svg version="1.1" id="Layer_1" xmlns="http://www.w3.org/2000/svg" xmlns:xlink="http://www.w3.org/1999/xlink" x="0px" y="0px" viewBox="0 0 100 100" style="enable-background:new 0 0 100 100;" xml:space="preserve">
<style type="text/css">
	.st0{fill:#117FA4;}
</style>
<path id="Icon_awesome-instagram" class="st0" d="M50.1,27.7c-12.4,0-22.4,10-22.4,22.4s10,22.4,22.4,22.4s22.4-10,22.4-22.4  C72.5,37.7,62.5,27.7,50.1,27.7C50.2,27.7,50.2,27.7,50.1,27.7z M50.1,64.6c-8,0-14.5-6.5-14.5-14.5c0-8,6.5-14.5,14.5-14.5  S64.7,42,64.7,50C64.7,58,58.2,64.5,50.1,64.6z M78.6,26.7c0,2.9-2.3,5.2-5.2,5.2c-2.9,0-5.2-2.3-5.2-5.2s2.3-5.2,5.2-5.2  C76.3,21.5,78.6,23.8,78.6,26.7C78.6,26.7,78.6,26.7,78.6,26.7z M93.4,32c-0.3-7-1.9-13.2-7-18.3c-5.1-5.1-11.3-6.7-18.3-7  c-7.2-0.4-28.8-0.4-36,0c-7,0.3-13.2,1.9-18.3,7S7.2,25,6.8,32c-0.4,7.2-0.4,28.8,0,36c0.3,7,1.9,13.2,7,18.3  c5.1,5.1,11.3,6.7,18.3,7c7.2,0.4,28.8,0.4,36,0c7-0.3,13.2-1.9,18.3-7c5.1-5.1,6.7-11.3,7-18.3C93.9,60.8,93.9,39.2,93.4,32  L93.4,32z M84.1,75.7c-1.5,3.8-4.5,6.8-8.3,8.3c-5.7,2.3-19.4,1.8-25.7,1.8s-20,0.5-25.7-1.8c-3.8-1.5-6.8-4.5-8.3-8.3  C13.8,70,14.4,56.4,14.4,50s-0.5-20,1.8-25.7c1.5-3.8,4.5-6.8,8.3-8.3c5.7-2.3,19.4-1.8,25.7-1.8s20-0.5,25.7,1.8  c3.8,1.5,6.8,4.5,8.3,8.3c2.3,5.7,1.8,19.4,1.8,25.7S86.4,70,84.1,75.7z"/>
</svg>