<?xml version="1.0" encoding="utf-8"?>
<!-- Generator: Adobe Illustrator 26.0.1, SVG Export Plug-In . SVG Version: 6.00 Build 0)  -->
<svg version="1.1" id="Layer_1" xmlns="http://www.w3.org/2000/svg" xmlns:xlink="http://www.w3.org/1999/xlink" x="0px" y="0px"
	 viewBox="0 0 1330 708" style="enable-background:new 0 0 1330 708;" xml:space="preserve">
<style type="text/css">
	.st0{fill:#007EA4;}
	.st1{fill:#FF9000;}
</style>
<path class="st0" d="M662.6,231.2c-5.6-34-24.6-55.8-59-62.8c-32.2-6.6-64.8-3.8-97.2-4.3c-8.9-0.1-9.3,5.4-9.2,12
	c0.1,18.2,0,36.4,0,54.6c0,13.8,0,27.6,0,41.3c0,25.4,0,24.8,24.9,24.3c10-0.2,11.9-4.2,11.7-12.9c-0.5-16-0.1-32-0.1-47.9
	c0-36.8,0-36.8,36.9-35.3c40.1,1.7,58.1,19.1,59.5,59.5c1,28.6,0.7,57.3,0.3,86c-0.4,25.6-0.7,26.1,26.4,25.5
	c7.8,0.2,9.7-4.2,9.6-11.1C665.9,317,669.7,273.9,662.6,231.2z"/>
<path class="st0" d="M1101.2,275.6c38.5-0.1,77-1.3,115.5-1.8c36.4-0.5,36.4-0.3,28.4-37.3c-8-37-28-63.3-66-72.7
	c-34.6-8.5-65.7-1.2-91.6,23.9c-38.9,37.7-44.5,106.7-12.7,152.3c31,44.5,89.7,58.5,141.6,35c12.9-5.9,7.7-12.8,5.7-21.1
	c-2.3-9.4-6.2-12.4-16.2-8.8c-17.2,6.2-35.2,9.1-51.9,5.8c-34.9-5.8-57.8-29.7-63.2-62.9C1089.3,278.4,1091.1,275.6,1101.2,275.6z
	 M1100.3,226.5c11.8-23.8,36.9-37.4,62.4-32.9c21.5,3.9,35.1,16.9,42.4,37c2.2,6.1,2.7,9.7-6.5,9.6c-29.6-0.4-59.2,0.2-88.8,0.7
	C1098.6,241.1,1094.7,237.8,1100.3,226.5z"/>
<path class="st0" d="M956.6,547.9c38.5-0.1,77-1.3,115.5-1.8c36.4-0.5,36.4-0.3,28.4-37.3c-8-37-28-63.3-66-72.7
	c-34.6-8.5-65.7-1.2-91.6,23.9c-38.9,37.7-44.5,106.7-12.7,152.3c31,44.5,89.7,58.5,141.6,35c12.9-5.9,7.7-12.8,5.7-21.1
	c-2.3-9.4-6.2-12.4-16.2-8.8c-17.2,6.2-35.2,9.1-51.9,5.8c-34.9-5.8-57.8-29.7-63.2-62.9C944.7,550.8,946.5,547.9,956.6,547.9z
	 M955.7,498.9c11.8-23.8,36.9-37.4,62.4-32.9c21.5,3.9,35.1,16.9,42.4,37c2.2,6.1,2.7,9.7-6.5,9.6c-29.6-0.4-59.2,0.2-88.8,0.7
	C954,513.4,950.1,510.2,955.7,498.9z"/>
<path class="st0" d="M533.7,508.5c0-41.9-0.7-83.9,0.4-125.8c0.3-11.3-4.2-13.8-10.8-14l0,0l-1.3,0c0,0-0.1,0-0.1,0l-15.1,0v0
	c-5.5,0.1-9.9,2.1-9.8,13.2c0.7,84.4,0.7,177.2,0,261.6c-0.1,11,4.3,13,9.7,13.2l0,0l13.9,0c1.2,0.1,2.4,0.1,3.5,0l0.1,0l0,0
	c6.1-0.4,10.2-3.1,10-14C533,600.7,533.7,550.4,533.7,508.5z"/>
<path class="st0" d="M666.2,545.4c0-30.3-0.6-60.6,0.2-90.8c0.3-11.6-5.2-12.6-11.2-12.2h-14.3c-0.8,0-1.6,0-2.3,0h-0.1l0,0
	c-4.8,0.3-8.6,2.5-8.5,12.2c0.7,60.5,0.7,129.4,0,190c-0.1,9.6,3.6,11.9,8.4,12.2l0,0h0.1c0.7,0,1.4,0,2.1,0h15.2c1,0.1,2,0.1,3,0h0
	l0,0c4.5-0.4,8-2.8,7.8-12.1C665.6,614.3,666.2,575.7,666.2,545.4z"/>
<path class="st0" d="M889.7,443.6c-17.5-5.5-30.6,0.8-37.2,18c-16.9,44.2-33.7,96.5-52,144.6c-18.6-48.1-36.2-99.6-51.9-143.6
	c-5.7-15.9-14-20.6-30.2-19.6c-12.7,0.8-13.3,4.1-9.2,14.6c23.3,59.5,46.7,127.6,68.7,187.5c3.8,9.7,8,12,12.7,12.2
	c1.1,0.1,2.2,0,3.4-0.1l9.8-0.3c2.3,0.1,4.4-0.1,6.3-0.2c6-0.1,9.6-5,11.9-12.7c4-13.1,10.9-34,15.7-47.2
	c11.3-31.3,23.2-62.1,35.2-93.2l0,0l21.2-52.5l0,0C895.6,448.4,895.7,445.5,889.7,443.6z"/>
<path class="st0" d="M1004,253.5c-3.6-59.5-24.2-81.5-82.2-88c-25.1-2.8-50.7-1-76.1-1.6c-10.1-0.3-9.9,5.9-9.8,13
	c0.1,29.8,0.1,59.6,0.1,89.4c0,29.8,0.9,59.7-0.4,89.4c-0.5,10.7,3.6,13.3,9.3,13.7v0h0.2c1.4,0.1,2.9,0.1,4.5,0h10.1
	c1.2,0,2.4,0.1,3.5,0h0v0c5.3-0.3,9.4-2.6,9.1-13.5c-1.1-40.8-0.4-81.7-0.4-122.5c0-34.7,0-34.7,35.6-33.5
	c42,1.5,60.3,19.5,61.3,61.3c0.6,28.1,0.2,56.3,0.2,84.5c0,24.9,0,24.6,25.4,23.7c7.4-0.3,10.9-1.7,10.7-10.1
	C1004.5,324.1,1006.1,288.7,1004,253.5z"/>
<path class="st0" d="M769.4,266.7c0-29.8-0.7-59.6,0.3-89.4c0.4-12.2-5.3-13.5-12.8-13.1h-12.7c-0.6,0-1.2,0-1.8,0h-0.2l0,0
	c-5.1,0.2-9.1,2.4-9,12.9c0.8,60.1,0.7,120.3,0,180.4c-0.1,10.1,3.9,12.1,8.8,12.2v0h20.3l-0.1-0.1c4.4-0.4,7.8-2.9,7.5-12
	C768.7,327.4,769.4,297,769.4,266.7z"/>
<path class="st0" d="M1208.4,528.4c-8.5-5-17.5-9.5-25.4-15.5c-17.5-13.4-15.1-34.1,4.7-43.6c11.7-5.7,27.5-5.6,40.2-3.9
	c7.3,1,10.1-1,11.1-4.1l0,0l0,0c0.3-0.8,0.4-1.7,0.5-2.6l0,0l0-0.1c0,0,0,0,0-0.1l1.3-15.6l0,0c0-5.4-3.3-8.9-11.3-8.7
	c-12.1,0.3-27.2-1.5-39.3,0.6c-28.7,5-50.9,22.8-55.8,45.2c-5.7,26.4,5.1,49.9,31.2,67.5c10.1,6.8,21,12.4,30.5,19.8
	c22.1,17.1,18.8,39.1-6.7,50.4c-13.4,6-27.8,7.1-42.2,6.9c-9.4-0.1-12.4,3.8-13.4,12.3c-1.8,15.2-1.7,19.2,8,20.2l0,0
	c0,0,0.1,0,0.1,0c2.5,0.2,5.7,0.3,9.7,0.3c2.7,0,5.3-0.2,8-0.5c7.4-0.2,15.3-0.6,20.1-1.3c36.3-3.9,63.3-21.4,69-49.3
	C1255.3,574.6,1241.3,547.8,1208.4,528.4z"/>
<g>
	<path class="st1" d="M93.6,51.7c0,0.1,0,0.1,0,0.2c0,0.2,0,0.4,0,0.5c0,0.2,0,0.4,0,0.6c0,0.2,0,0.3,0.1,0.5c0,0.2,0.1,0.4,0.1,0.7
		c0,0,0,0.1,0,0.1l21.2,95.4c1.2,6,6.9,9.9,12.6,8.6c2.8-0.6,5.1-2.4,6.7-4.9c1.5-2.5,2.1-5.5,1.5-8.4l-13.3-59.9l34.9,34
		c0,0,0,0,0,0c4.2,4.5,8.5,9,12.7,13.5c36.8-38.9,96.4-38.9,133.2,0c3.2-3.4,6.5-6.9,9.7-10.3c0.1-0.1,0.3-0.3,0.4-0.5l0.4-0.4
		c0.7-0.8,1.4-1.5,2.2-2.3c0,0,0,0,0,0L347.4,84l-11.8,61c-1.1,6.1,2.6,12,8.3,13.2c2.8,0.6,5.6,0,8-1.7c2.4-1.7,4-4.2,4.5-7.1
		l19.2-99.1c0.4-1.9,0.2-3.9-0.4-5.8c0,0,0,0,0,0c-0.1-0.3-0.2-0.6-0.3-0.9c-0.1-0.1-0.1-0.2-0.2-0.4c-0.1-0.2-0.2-0.4-0.3-0.6
		c-0.1-0.2-0.2-0.4-0.3-0.5c-0.1-0.1-0.1-0.2-0.2-0.3c0,0-0.1-0.1-0.1-0.1c-0.1-0.2-0.2-0.3-0.3-0.5c-0.1-0.2-0.2-0.3-0.3-0.5
		c-0.1-0.1-0.1-0.2-0.2-0.2c-0.2-0.2-0.4-0.4-0.6-0.6c0,0,0,0,0,0c0,0,0,0,0,0c-1.4-1.4-3.2-2.4-5.2-2.9c-2.5-0.5-5-0.1-7.3,1.3
		c-0.1,0.1-0.2,0.1-0.3,0.2c-0.1,0.1-0.3,0.2-0.4,0.2c0,0-0.1,0.1-0.1,0.1c-0.1,0.1-0.3,0.2-0.4,0.3c-0.1,0.1-0.3,0.2-0.4,0.3
		c-0.1,0.1-0.2,0.2-0.3,0.3c-0.2,0.2-0.3,0.3-0.5,0.5c0,0-0.1,0-0.1,0.1l-58,64.1c-37.8-27.1-87.8-27.1-125.6-0.1L111.7,44
		c-1.3-1.4-2.9-2.4-4.7-2.9c0,0,0,0,0,0c-0.3-0.1-0.6-0.2-0.9-0.2c-0.1,0-0.3,0-0.4-0.1c-0.2,0-0.4-0.1-0.6-0.1c-0.2,0-0.4,0-0.6,0
		c-0.1,0-0.2,0-0.3,0c0,0-0.1,0-0.1,0c-0.2,0-0.4,0-0.5,0c-0.2,0-0.4,0-0.6,0c-0.1,0-0.2,0-0.3,0c-0.3,0-0.5,0.1-0.8,0.1
		c0,0,0,0,0,0c0,0,0,0,0,0c-1.9,0.4-3.7,1.4-5.2,2.9c-1.8,1.9-2.9,4.4-3.1,7.1c0,0.1,0,0.3,0,0.4C93.6,51.4,93.6,51.6,93.6,51.7z"/>
	<path class="st1" d="M391.7,301.5c-15.8-86.3-84.2-148.4-176.6-136.5c-80.2,10.3-141,92.2-125.9,172.2c7.8,41.1,29.7,74.7,61,96.6
		c25.3,17.7,56.7,27.8,91.6,28c4.2,0,8.4,0.2,12.6,0.2c2.4,0,4.8-0.1,7.2-0.4c8.3-1,15.6-4.7,16.6-14.1c1.1-9.9-5.1-15.5-13.6-18.6
		c-3.6-1.3-7.7-1.5-11.6-2c-63.8-7.7-100.6-39.7-110.8-96.7c-9.9-55,39.1-134.1,122.9-107.8c37.8,11.8,57.5,41.1,66,77.7
		c13.2,56.7,6.8,112.1-17.7,164.7c-28.8,62-77.5,104.7-136.8,136.3c-23.8,12.7-48.7,22.4-74.6,29.6c-8.5,2.4-13,7.2-11.6,16.2
		c1.5,9.7,8.5,11.3,16.7,10.5c2.2-0.2,4.4-0.3,6.6-0.6c75.4-13.2,141.5-45.3,195.1-100.2C378,485.6,409.9,400.8,391.7,301.5z"/>
	<path class="st1" d="M140,447.4c-13.6-9.5-24.8-20.5-24.8-20.5c-32.7,0-28.2,35.1-28.2,35.1h81.4C168.3,462,153.6,456.9,140,447.4z
		"/>
</g>
</svg>
